<?xml version="1.0" encoding="UTF-8"?>
<!DOCTYPE svg PUBLIC "-//W3C//DTD SVG 1.1//EN" "http://www.w3.org/Graphics/SVG/1.1/DTD/svg11.dtd">
<!-- Creator: CorelDRAW 2020 (64-Bit) -->
<svg xmlns="http://www.w3.org/2000/svg" xml:space="preserve" width="15.2398mm" height="5.4186mm" version="1.1" style="shape-rendering:geometricPrecision; text-rendering:geometricPrecision; image-rendering:optimizeQuality; fill-rule:evenodd; clip-rule:evenodd"
viewBox="0 0 1523.98 541.86"
 xmlns:xlink="http://www.w3.org/1999/xlink"
 xmlns:xodm="http://www.corel.com/coreldraw/odm/2003">
 <defs>
  <style type="text/css">
   <![CDATA[
    .fil0 {fill:#332C2B;fill-rule:nonzero}
    .fil1 {fill:#77216F;fill-rule:nonzero}
   ]]>
  </style>
 </defs>
 <g id="图层_x0020_1">
  <metadata id="CorelCorpID_0Corel-Layer"/>
  <polygon class="fil0" points="576.72,400.2 596.87,400.2 651.78,278.68 651.78,444.71 673.88,444.71 673.88,228.31 651.78,228.31 586.8,374.85 521.81,228.31 499.72,228.31 499.72,444.71 521.81,444.71 521.81,278.68 "/>
  <path id="1" class="fil0" d="M839.44 264.38c0,-21.12 -15.27,-36.07 -36.07,-36.07l-68.56 0c-20.47,0 -35.74,14.95 -35.74,36.07l0 144.26c0,20.8 15.27,36.07 35.74,36.07l68.56 0c20.8,0 36.07,-15.27 36.07,-36.07l0 -144.26zm-22.75 3.9l0 136.46c0,11.7 -7.14,18.85 -18.84,18.85l-57.19 0c-11.69,0 -18.84,-7.15 -18.84,-18.85l0 -136.46c0,-11.7 7.15,-18.85 18.84,-18.85l57.19 0c11.7,0 18.84,7.15 18.84,18.85z"/>
  <path id="2" class="fil0" d="M932.22 358.28l45.17 0 0 46.46c0,11.7 -7.15,18.85 -18.85,18.85l-53.94 0c-11.69,0 -18.84,-7.15 -18.84,-18.85l0 -136.46c0,-11.7 7.15,-18.85 18.84,-18.85l53.94 0c11.7,0 18.85,7.15 18.85,18.85l0 22.42 22.74 -3.58 0 -22.74c0,-21.12 -15.27,-36.07 -36.07,-36.07l-65.31 0c-20.47,0 -35.74,14.95 -35.74,36.07l0 144.26c0,20.8 15.27,36.07 35.74,36.07l65.31 0c20.8,0 36.07,-15.27 36.07,-36.07l0 -71.15 -67.91 0 0 20.79z"/>
  <path id="3" class="fil0" d="M1160.82 264.38c0,-21.12 -15.27,-36.07 -36.07,-36.07l-68.56 0c-20.47,0 -35.74,14.95 -35.74,36.07l0 144.26c0,20.8 15.27,36.07 35.74,36.07l68.56 0c20.8,0 36.07,-15.27 36.07,-36.07l0 -144.26zm-22.75 3.9l0 136.46c0,11.7 -7.14,18.85 -18.84,18.85l-57.19 0c-11.69,0 -18.84,-7.15 -18.84,-18.85l0 -136.46c0,-11.7 7.15,-18.85 18.84,-18.85l57.19 0c11.7,0 18.84,7.15 18.84,18.85z"/>
  <path id="4" class="fil0" d="M1299.42 375.5l0 29.24c0,11.7 -7.15,18.85 -18.85,18.85l-54.59 0c-11.69,0 -18.84,-7.15 -18.84,-18.85l0 -136.46c0,-11.7 7.15,-18.85 18.84,-18.85l54.59 0c11.7,0 18.85,7.15 18.85,18.85l0 27.62 22.74 -3.58 0 -27.94c0,-21.12 -15.27,-36.07 -35.74,-36.07l-66.29 0c-20.47,0 -35.74,14.95 -35.74,36.07l0 144.26c0,20.8 15.27,36.07 35.74,36.07l66.29 0c20.47,0 35.74,-15.27 35.74,-36.07l0 -29.24 -22.74 -3.9z"/>
  <path id="5" class="fil0" d="M1484.48 264.38c0,-21.12 -15.27,-36.07 -36.07,-36.07l-68.56 0c-20.47,0 -35.74,14.95 -35.74,36.07l0 144.26c0,20.8 15.27,36.07 35.74,36.07l68.56 0c20.8,0 36.07,-15.27 36.07,-36.07l0 -144.26zm-22.75 3.9l0 136.46c0,11.7 -7.14,18.85 -18.84,18.85l-57.19 0c-11.69,0 -18.84,-7.15 -18.84,-18.85l0 -136.46c0,-11.7 7.15,-18.85 18.84,-18.85l57.19 0c11.7,0 18.84,7.15 18.84,18.85z"/>
  <path class="fil1" d="M276.63 516.91c-13.74,10.69 -30.84,10.69 -44.58,0l-160.75 -136.88c-10.95,-9.39 -17.49,-20.29 -21.41,-34.04l-28.43 -175.15c-2.14,-19.2 9.6,-28.97 22.11,-40.36l189.54 -108.46c13.64,-6.81 28.94,-6.76 42.47,0l102.13 58.62 -42.82 28.08 -58.26 -35.1c-15.8,-7.02 -27.08,-7.77 -44.58,0l-145.66 87.4c-14.7,10.28 -23.16,22.9 -23.16,41.41l24.38 130.24c3.81,15.24 10.55,26.09 22.46,36.51l118.62 95.87c13.48,10.48 32.49,10.49 45.98,0l124.07 -93.1c9.83,-9.82 21.46,-21.62 23.22,-35.72l10.51 -40.79c1.8,-14.4 -10.04,-30.32 -21.41,-37.9l-92.66 -60.02 -1.76 43.17 43.52 29.48c11.67,7.78 20.71,21.89 20.71,36.15 -1.64,13.13 -11.2,26.7 -21.41,35.45l-83.18 65.99 -3.16 1.75 -3.16 2.11 -3.51 1.4 -3.86 1.06 -4.21 0.35 -3.86 0.35 -4.21 -0.35 -3.87 -0.35 -3.86 -1.06 -3.86 -1.4 -3.16 -2.11 -3.16 -1.75 -82.83 -65.99c-9.97,-7.48 -20.2,-22.93 -21.76,-35.45l-8.42 -87.39c0,-16.87 8.72,-28.84 21.76,-38.61l91.61 -57.21c13.74,-7.64 29.43,-7.64 43.17,0l56.16 35.1 41.76 -28.43 -15.09 39.31 92.31 57.56c13.89,9.26 21.06,20.85 21.06,37.55l-13.34 81.79c-3.93,13.77 -10.51,24.7 -21.41,34.04l-160.75 136.88z"/>
  <path class="fil1" d="M596.31 168.86c7.6,7.82 20.02,13.44 37.26,16.87l-4.98 17.18c-9.96,-2.14 -18.87,-5.38 -26.74,-9.72 -7.87,-4.33 -14.32,-9.55 -19.35,-15.66 -4.18,5.36 -10.01,10.15 -17.51,14.38 -7.49,4.23 -16.91,7.89 -28.26,11l-6.59 -16.86c9.85,-2.14 17.8,-4.61 23.85,-7.39 6.05,-2.78 10.63,-6.05 13.73,-9.8l-29.22 0 0 -15.25 34.52 0c0.11,-0.86 0.17,-1.8 0.17,-2.82 0,-1.01 0,-2.11 0,-3.29l-29.72 0 0 -15.9 -10.43 9.32c-1.08,-1.82 -2.23,-3.64 -3.46,-5.46 -1.23,-1.82 -2.54,-3.64 -3.93,-5.46l0 69.86 -16.87 0 0 -64.08c-2.14,5.03 -4.33,9.85 -6.58,14.45 -2.25,4.61 -4.6,8.94 -7.07,13.01l-12.2 -14.45c4.49,-6.96 8.8,-14.56 12.93,-22.81 4.12,-8.24 7.52,-16.59 10.19,-25.05l-13.97 0 0 -17.83 16.7 0 0 -26.82 16.87 0.8 0 26.02 12.2 0 0 17.83 -12.2 0 0 14.61 5.14 -5.14c1.92,2.36 4.04,5.01 6.34,7.95 2.3,2.95 4.42,5.76 6.34,8.44l0 -33.73 77.25 0 0 54.44 -30.19 0c0,1.07 -0.03,2.14 -0.08,3.21 -0.05,1.08 -0.03,2.04 0.08,2.9l36.78 0 0 15.25 -31 0zm-38.38 -85.76l-17.83 0 0 -16.38 17.83 0 0 -9.96 15.9 0.81 0 9.15 17.18 0 0 -9.96 15.9 0.81 0 9.15 20.88 0 0 16.38 -20.88 0 0 6.43 -15.9 0 0 -6.43 -17.18 0 0 6.43 -15.9 0 0 -6.43zm0.96 24.57l0 5.95 46.42 0 0 -5.95 -46.42 0zm0 25.38l46.42 0 0 -5.94 -46.42 0 0 5.94z"/>
  <path id="1" class="fil1" d="M816.39 66.88l0 15.42 -136.19 0 0 -15.42 57.98 0 -2.41 -10.6 21.2 -0.96 2.57 11.56 56.85 0zm-19.91 21.68l0 34.53 -96.2 0 0 -34.53 96.2 0zm-19.76 14.46l-56.85 0 0 5.94 56.85 0 0 -5.94zm-89.77 25.53l123.5 0 0 49.47c0,4.39 -0.3,7.97 -0.89,10.76 -0.58,2.78 -1.49,5 -2.73,6.66 -1.23,1.66 -2.81,2.87 -4.73,3.62 -1.93,0.74 -4.29,1.28 -7.07,1.6l-13.01 1.29 -5.62 -17.19 9.16 -0.8c1.07,-0.11 1.95,-0.3 2.64,-0.56 0.7,-0.27 1.24,-0.78 1.61,-1.53 0.38,-0.75 0.62,-1.82 0.72,-3.21 0.11,-1.39 0.16,-3.21 0.16,-5.46l0 -30.19 -84.15 0 0 57.17 -19.59 0 0 -71.63zm93.79 55.41l-64.72 0 0 -35.65 64.72 0 0 35.65zm-18.95 -20.72l-26.82 0 0 5.94 26.82 0 0 -5.94z"/>
  <path id="2" class="fil1" d="M1006.6 179.14l-42.72 0 0 19.92 -18.95 0 0 -19.92 -48.66 0 0 -18.47 48.66 0 0 -9.47 -40.47 0 0 -17.51c3.85,-4.71 7.87,-10.55 12.04,-17.5l-14.77 0 0 -18.15 24.25 0c1.82,-3.86 3.37,-7.44 4.65,-10.76l-32.12 0 0 33.56c0,10.39 -0.29,19.22 -0.88,26.5 -0.59,7.28 -1.61,13.84 -3.05,19.68 -1.45,5.83 -3.32,11.34 -5.62,16.54 -2.3,5.19 -5.17,10.84 -8.59,16.94l-20.24 -7.39c3.53,-6.21 6.53,-11.91 8.99,-17.1 2.47,-5.19 4.42,-10.44 5.87,-15.74 1.44,-5.3 2.49,-10.92 3.13,-16.86 0.64,-5.94 0.96,-12.88 0.96,-20.8l0 -52.84 53 0 -2.89 -13.97 21.36 -0.96 2.89 14.93 50.91 0 0 17.51 -66.01 0 11.41 3.21c-0.54,1.18 -1.08,2.41 -1.61,3.69 -0.54,1.29 -1.13,2.57 -1.77,3.86l52.36 0 0 18.15 -61.67 0c-1.93,3.42 -3.88,6.63 -5.86,9.63 -1.99,3 -3.94,5.62 -5.87,7.87l19.6 0 0 -14.45 18.95 0.8 0 13.65 31.64 0 0 17.51 -31.64 0 0 9.47 42.72 0 0 18.47z"/>
 </g>
</svg>
